# xmcd
#
# Track frame offsets:
#	150
#	21607
#	37260
#	52712
#	71325
#	93772
#	109080
#	130462
#	148042
#
# Disc length: 2392 seconds
#
# Revision: 0
# Processed by: cddbd v1.4PL0 Copyright (c) Steve Scherf et al.
# Submitted via: dBpowerAMP V4.0
#
DISCID=7d095609
DTITLE=Dieselhed - Elephant Rest Home
DYEAR=1900
DGENRE=Country
TTITLE0=Tying Flies
TTITLE1=Trucker's Alibi
TTITLE2=Cold Duck
TTITLE3=Futon Long
TTITLE4=Lap Dance
TTITLE5=Life Beyond Eureka
TTITLE6=Red Chair
TTITLE7=Twin Falls
TTITLE8=Corrine
EXTD=Brown Dragon Station Wagon
EXTT0=
EXTT1=
EXTT2=
EXTT3=
EXTT4=
EXTT5=
EXTT6=
EXTT7=
EXTT8=
PLAYORDER=
